<svg xmlns="http://www.w3.org/2000/svg" version="1.1" xmlns:xlink="http://www.w3.org/1999/xlink" xmlns:svgjs="http://svgjs.dev/svgjs" viewBox="0 0 1920 1080" class="overflow-hidden rounded-md drop-shadow-lg transition duration-300" style="overflow: hidden; height: 85vh;"><rect width="1920" height="1080" fill="#ededee"></rect><g clip-path="url(&quot;#SvgjsClipPath6983&quot;)"><g transform="matrix(-0.9420248509323402,0.6596129018037032,-0.6596129018037032,-0.9420248509323402,2168.3540331720465,433.18835114013683)"><path d="M0,-1080C0.3825087814260352,-973.5010098927922,11.12648044284236,-645.3969445321728,2.2950526885562113,-441.00605935675355C-6.536375065729937,-236.61517418133425,-60.70527545005541,-61.876627589123046,-52.988566525716884,146.3453110525159C-45.27185760137836,354.56724969415484,37.5618641065908,568.6766480003209,48.59530623458738,808.32557249308C59.62874836258397,1047.974496985839,21.311303948027195,1358.9597867579173,13.212086242262629,1584.2388580090706C5.112868536498064,1809.5179292602238,2.2020143737104383,2064.0398096681783,0,2160L 1920 2160 L 1920 -1080 Z" fill="url(&quot;#SvgjsLinearGradient6971&quot;)"></path><path d="M160,-1080C150.33280203567097,-961.7430938989442,92.0127048537914,-582.3524791049535,101.99681221402575,-370.45856339366475C111.9809195742601,-158.56464768237598,198.04407721510486,-5.176908170306575,219.9046441614061,191.3634942677328C241.76521110770736,387.9038967057721,253.1499825075545,598.6073872841365,233.1602138918332,808.7838512345714C213.17044527611188,1018.9603151850064,112.15940144905039,1227.2195865094375,99.9660324670782,1452.4222779703423C87.772663485106,1677.624969431247,149.99433874451304,2042.0703796617238,160,2160L 1920 2160 L 1920 -1080 Z" fill="url(&quot;#SvgjsLinearGradient6972&quot;)"></path><path d="M320,-1080C324.93793805686084,-987.9052281207692,344.1482860469431,-710.7256185359697,349.6276283411652,-527.4313687246146C355.10697063538726,-344.1371189132594,350.51972296018516,-151.7194007185608,352.87605376533253,19.76549886813102C355.2323845704799,191.2503984548228,360.85033909126054,316.14066685856153,363.7656131720495,501.47802879553626C366.68088725283843,686.815390732511,365.65078168921667,937.1040108717831,370.36769825006627,1131.7896704899795C375.08461481091587,1326.475330108176,400.4617289121581,1498.2235982530449,392.06711253714707,1669.591986504715C383.67249616213604,1840.960374756385,332.01118542285786,2078.265331084119,320,2160L 1920 2160 L 1920 -1080 Z" fill="url(&quot;#SvgjsLinearGradient6973&quot;)"></path><path d="M480,-1080C468.4917945897783,-1006.2901711045444,412.6311770806914,-790.9374118687368,410.95076753866977,-637.7410266272663C409.27035799664816,-484.54464138579567,468.3411324536546,-315.93810609161164,469.91754274787024,-160.82168855117652C471.4939530420859,-5.70527101074137,413.1296052503649,131.2415909454632,420.4092293039635,292.9574786153446C427.68885335756215,454.673366285226,512.5629428881712,651.601059903508,513.5952870694622,809.4736374681119C514.6276312507532,967.3462150327157,434.2521683785615,1096.1881524988564,426.6032943917095,1240.1929440029676C418.95442040485744,1384.1977355070787,458.80259221363485,1520.2012104932737,467.70204314834996,1673.5023864927791C476.60149408306506,1826.8035624922845,477.950340524725,2078.9170644154633,480,2160L 1920 2160 L 1920 -1080 Z" fill="url(&quot;#SvgjsLinearGradient6974&quot;)"></path><path d="M640,-1080C636.3520756929553,-999.68673449278,630.5386100074982,-779.2108469504282,618.1124541577316,-598.12040695668C605.686298307965,-417.0299669629318,553.9889525976251,-178.85475169464945,565.4430649014005,6.542639962489389C576.8971772051758,191.94003161962826,682.3942330101169,341.26934118105225,686.8371279803835,514.2639429861532C691.28002295065,687.2585447912542,608.8237316005476,860.9361721405559,592.1004347229999,1044.510250793095C575.3771378454522,1228.0843294456345,578.5140858355976,1429.793456700238,586.4973467150976,1615.7084149013888C594.4806075945976,1801.6233731025395,631.0828911191829,2069.2847358168983,640,2160L 1920 2160 L 1920 -1080 Z" fill="url(&quot;#SvgjsLinearGradient6975&quot;)"></path><path d="M800,-1080C809.3553004759206,-979.0761864318076,857.2887822424182,-661.9126460629201,856.1318028555232,-474.4571185908459C854.9748234686283,-287.00159111877167,812.3487567374833,-133.88495141810412,793.0581236786307,44.73316483244531C773.7674906197782,223.35128108299475,732.3149186358634,432.2027288093391,740.3880045024077,597.2515789124508C748.4610903689521,762.3004290155625,834.278367326513,868.797220409504,841.4966388778969,1035.0262654511157C848.7149104292807,1201.2553104927274,790.61374029036,1407.1302267373069,783.6976338107106,1594.6258491621209C776.7815273310612,1782.1214715869348,797.2829389684517,2065.7709748603534,800,2160L 1920 2160 L 1920 -1080 Z" fill="url(&quot;#SvgjsLinearGradient6976&quot;)"></path><path d="M960,-1080C957.2802654193754,-984.1513545968412,942.1196396133528,-686.1316459046107,943.6815925162523,-504.9081275810469C945.2435454191518,-323.68460925748326,956.9294719031335,-171.14295677657427,969.3717174173972,7.341109941382086C981.813962931661,185.82517665933844,1026.8208811830634,387.7587892624417,1018.3350656018345,565.9962727266912C1009.8492500206055,744.2337561909408,928.5984937357357,899.4141977222561,918.4568239300238,1076.766010726879C908.3151541243119,1254.1178237315016,950.5611840892338,1449.568152542241,957.4850467675632,1630.107150754428C964.4089094458925,1810.6461489666149,959.5808411279272,2071.684525125738,960,2160L 1920 2160 L 1920 -1080 Z" fill="url(&quot;#SvgjsLinearGradient6977&quot;)"></path><path d="M1120,-1080C1116.675633265017,-968.1594550320497,1105.4188201562285,-620.1363396336816,1100.0537995901025,-408.9567301922979C1094.6887790239764,-197.7771207509143,1088.3487130741535,-34.21471453823253,1087.809876603244,187.0776566483019C1087.2710401323345,408.3700278348364,1087.3293952769327,688.6217336653468,1096.8207807646456,918.7974969269087C1106.3121662523586,1148.9732601884707,1140.8949863236292,1361.2651523721581,1144.7581895295216,1568.1322362176734C1148.621392735414,1774.9993200631886,1124.1263649215869,2061.3553727029457,1120,2160L 1920 2160 L 1920 -1080 Z" fill="url(&quot;#SvgjsLinearGradient6978&quot;)"></path><path d="M1280,-1080C1289.9700245172057,-1020.5949469364464,1330.8121420719888,-846.6984414470548,1339.8201471032348,-723.5696816186786C1348.828152134481,-600.4409217903024,1351.622275788608,-473.13056893275814,1334.0480301874768,-341.2274410297425C1316.4737845863456,-209.32431312672688,1232.7530023556328,-69.73691273941212,1234.3746734964477,67.8490857994153C1235.9963446372626,205.43508433824275,1324.367077448359,332.7831223346981,1343.7780570323657,484.2885502032221C1363.1890366163725,635.7939780717461,1356.441792287909,827.6007649898834,1350.8405510004877,976.8816530105595C1345.2393097130664,1126.1625410312356,1323.7106654378379,1242.8123758767836,1310.1706093078383,1379.973878327279C1296.6305531778387,1517.1353807777743,1274.62864910513,1669.846314101412,1269.6002142204904,1799.8506677135322C1264.5717793358508,1929.8550213256524,1278.2667023700817,2099.975111285589,1280,2160L 1920 2160 L 1920 -1080 Z" fill="url(&quot;#SvgjsLinearGradient6979&quot;)"></path><path d="M1440,-1080C1451.2546697815103,-1000.5820800560955,1513.4918855991334,-764.8312471012158,1507.5280186890616,-603.492480336573C1501.5641517789898,-442.1537135719301,1402.8319195187528,-258.7381831467865,1404.216798539569,-111.96739941214298C1405.6016775603853,34.80338432250056,1519.3139579528452,136.70068881122413,1515.8372928139597,277.1322220712883C1512.3606276750743,417.56375533135247,1397.8989766305936,566.9935762135763,1383.3568077062566,730.6218001482421C1368.8146387819197,894.2500240829079,1415.5282999812414,1090.6649084515684,1428.5842792679377,1258.9015656792835C1441.640258554634,1427.1382229069986,1459.7900633044246,1589.8586711277474,1461.692683426435,1740.0417435145334C1463.5953035484454,1890.2248159013195,1443.615447237739,2090.006957252422,1440,2160L 1920 2160 L 1920 -1080 Z" fill="url(&quot;#SvgjsLinearGradient6980&quot;)"></path><path d="M1600,-1080C1592.3789126692482,-949.1930712233083,1545.2825015786518,-557.1821695203083,1554.2734760154895,-295.1584273398494C1563.264450452327,-33.13468515939053,1651.3976189381638,224.43934476238695,1653.9458466210262,492.1424530827535C1656.4940743038887,759.84556140312,1578.5538165495025,1033.0839647628086,1569.5628421126648,1311.0602225823498C1560.5718676758272,1589.036480401891,1594.9271403521109,2018.5100370970583,1600,2160L 1920 2160 L 1920 -1080 Z" fill="url(&quot;#SvgjsLinearGradient6981&quot;)"></path><path d="M1760,-1080C1769.7267659806412,-943.7865059024253,1807.1738569475176,-529.7330870304368,1818.3605958838477,-262.7190354145523C1829.5473348201779,4.295016201332146,1836.870951851512,259.17542278596505,1827.120433617981,522.0843096953066C1817.36991538445,784.9931966046481,1771.0442254189925,1041.7483376573816,1759.8574864826624,1314.7342860414972C1748.6707475463322,1587.7202344256127,1759.9762477471104,2019.1223810069162,1760,2160L 1920 2160 L 1920 -1080 Z" fill="url(&quot;#SvgjsLinearGradient6982&quot;)"></path></g></g><defs><linearGradient x1="0.1" y1="0" x2="0" y2="1" id="SvgjsLinearGradient6971"><stop stop-color="#ededee" offset="0"></stop><stop stop-color="#ededee" offset="0"></stop></linearGradient><linearGradient x1="0.1" y1="0" x2="0" y2="1" id="SvgjsLinearGradient6972"><stop stop-color="#d9d9db" offset="0"></stop><stop stop-color="#d9d9db" offset="0.08333333333333333"></stop></linearGradient><linearGradient x1="0.1" y1="0" x2="0" y2="1" id="SvgjsLinearGradient6973"><stop stop-color="#c4c4c8" offset="0"></stop><stop stop-color="#c4c5c8" offset="0.16666666666666666"></stop></linearGradient><linearGradient x1="0.1" y1="0" x2="0" y2="1" id="SvgjsLinearGradient6974"><stop stop-color="#b0b0b4" offset="0"></stop><stop stop-color="#b0b1b4" offset="0.25"></stop></linearGradient><linearGradient x1="0.1" y1="0" x2="0" y2="1" id="SvgjsLinearGradient6975"><stop stop-color="#9c9ca1" offset="0"></stop><stop stop-color="#9c9da1" offset="0.3333333333333333"></stop></linearGradient><linearGradient x1="0.1" y1="0" x2="0" y2="1" id="SvgjsLinearGradient6976"><stop stop-color="#87878e" offset="0"></stop><stop stop-color="#87888e" offset="0.4166666666666667"></stop></linearGradient><linearGradient x1="0.1" y1="0" x2="0" y2="1" id="SvgjsLinearGradient6977"><stop stop-color="#74747a" offset="0"></stop><stop stop-color="#74757a" offset="0.5"></stop></linearGradient><linearGradient x1="0.1" y1="0" x2="0" y2="1" id="SvgjsLinearGradient6978"><stop stop-color="#606066" offset="0"></stop><stop stop-color="#606166" offset="0.5833333333333334"></stop></linearGradient><linearGradient x1="0.1" y1="0" x2="0" y2="1" id="SvgjsLinearGradient6979"><stop stop-color="#4d4d52" offset="0"></stop><stop stop-color="#4d4e52" offset="0.6666666666666666"></stop></linearGradient><linearGradient x1="0.1" y1="0" x2="0" y2="1" id="SvgjsLinearGradient6980"><stop stop-color="#3a3a3d" offset="0"></stop><stop stop-color="#3a3a3d" offset="0.75"></stop></linearGradient><linearGradient x1="0.1" y1="0" x2="0" y2="1" id="SvgjsLinearGradient6981"><stop stop-color="#272729" offset="0"></stop><stop stop-color="#272729" offset="0.8333333333333334"></stop></linearGradient><linearGradient x1="0.1" y1="0" x2="0" y2="1" id="SvgjsLinearGradient6982"><stop stop-color="#141415" offset="0"></stop><stop stop-color="#141415" offset="0.9166666666666666"></stop></linearGradient><clipPath id="SvgjsClipPath6983"><rect width="1920" height="1080"></rect></clipPath></defs></svg>