<svg xmlns="http://www.w3.org/2000/svg" version="1.1" xmlns:xlink="http://www.w3.org/1999/xlink"  viewBox="0 0 1920 1080" class="overflow-hidden rounded-md drop-shadow-lg transition duration-300" style="overflow: hidden; height: 85vh;"><rect width="1920" height="1080" fill="#a0a0a3"></rect><g clip-path="url(&quot;#SvgjsClipPath1622&quot;)"><g transform="matrix(-2.112515728529184e-16,-1.15,1.15,-2.112515728529184e-16,293.4652099609377,1591.6349914550783)"><path d="M0,-1080C-3.5956388140097033,-974.7142886566916,-27.169844448870645,-650.8176730576193,-21.57383288405822,-448.2857319401491C-15.977821319245795,-245.7537908226789,42.554101395748866,-99.73780095003573,33.576069388874544,135.1916467048212C24.59803738200022,370.1210943596782,-56.10404950275104,721.1595525662575,-75.44202492530417,961.2909539889926C-94.7800003478573,1201.4223554117275,-95.02545396732829,1376.195214239397,-82.45178314644426,1575.9800552412316C-69.87811232556022,1775.7648962430662,-13.741963857740709,2062.663342540205,0,2160L 1920 2160 L 1920 -1080 Z" fill="url(&quot;#SvgjsLinearGradient1610&quot;)"></path><path d="M160,-1080C155.30018544697418,-924.9569569434291,120.69219367413842,-428.2300154408001,131.80111268184504,-149.74174166057418C142.91003168955166,128.74653211965176,241.4786706093015,320.0966620190265,226.6535140462397,590.9296426813559C211.8283574831779,861.7626233436852,53.95909231118088,1213.744416093628,42.850173303474264,1475.256142313402C31.741254295767646,1736.7678685331762,140.4750288839124,2045.8760237189003,160,2160L 1920 2160 L 1920 -1080 Z" fill="url(&quot;#SvgjsLinearGradient1611&quot;)"></path><path d="M320,-1080C324.3207600567573,-992.8261748142763,336.71966401246004,-753.3151280426639,345.924560340544,-556.9570488856582C355.129456668628,-360.5989697286525,397.76206592295244,-77.22156706038953,375.2293779685038,98.14847494203428C352.69669001405515,273.5185169444581,228.2443129205022,325.2835506978812,210.72843261385202,495.2632031288848C193.21255230720183,665.2428555598884,236.18813801866688,949.9478229769899,270.1340961286027,1118.026389528056C304.0800542385386,1286.1049560791218,406.09319729490096,1330.0723340232903,414.40418127346715,1503.734602435281C422.71516525203333,1677.3968708472717,335.73403021224453,2050.6224337392136,320,2160L 1920 2160 L 1920 -1080 Z" fill="url(&quot;#SvgjsLinearGradient1612&quot;)"></path><path d="M480,-1080C477.71603189975286,-1015.2746836854417,452.7843210934669,-841.4942955724424,466.29619139851707,-691.6481021126499C479.80806170356726,-541.8019086528574,556.9722385157033,-312.9584891954364,561.071221830301,-180.92283924124473C565.1702051448988,-48.88718928705302,493.08566174361516,-34.98425047508252,490.89009128610337,100.56579761250038C488.6945208285916,236.11584570008327,560.8152662020957,502.07945749250746,547.8977990852302,632.3774492842526C534.9803319683647,762.6754410759978,440.42935451707234,767.0517730193582,413.38528858491026,882.3537483629716C386.3412226527482,997.655723706585,382.81041611764516,1191.8095229326573,385.6334034922578,1324.189301345933C388.45639086687044,1456.5690797592088,414.59544674796246,1537.3306357336148,430.32321283258614,1676.632418842626C446.0509789172098,1815.9342019516373,471.7205354720977,2079.438736473771,480,2160L 1920 2160 L 1920 -1080 Z" fill="url(&quot;#SvgjsLinearGradient1613&quot;)"></path><path d="M640,-1080C640.205857600526,-1017.8616018645677,632.3556726385502,-826.5632054684314,641.2351456031558,-707.1696111874061C650.1146185677615,-587.7760169063807,674.8738978232877,-489.5747680953217,693.2768377876334,-363.638434313848C711.6797777519791,-237.7021005323743,770.3359615830726,-112.61014650039652,751.6527853892297,48.44839150143599C732.9696091953869,209.5069295032685,586.9492357957325,446.0496927327637,581.1777806245761,602.712793697147C575.4063254534198,759.3758946615304,691.6967369786187,873.4958430940287,717.0240543622915,988.4269972877365C742.3513717459643,1103.3581514814443,764.6615957798566,1172.7667538680005,733.1416849266128,1292.299718859394C701.621774073369,1411.8326838507876,543.4282033972642,1561.008073712663,527.9045892428287,1705.6247872360973C512.3809750883933,1850.2415007595316,621.3174315404715,2084.270797872683,640,2160L 1920 2160 L 1920 -1080 Z" fill="url(&quot;#SvgjsLinearGradient1614&quot;)"></path><path d="M800,-1080C804.2957021605675,-994.1643196910134,814.772778956659,-736.9905164558515,825.774212963405,-564.9859181460803C836.7756469701511,-392.981319836309,886.5817440427984,-212.41094853822915,866.0086040404766,-47.972410141372734C845.4354640381548,116.46612825548368,721.9618189671196,265.6566055101914,702.3353729494743,421.64531223505816C682.708926931829,577.6340189599249,741.665213737098,745.6283391787409,748.2499279346044,887.959830207828C754.8346421321108,1030.2913212369149,724.7026987898596,1155.4825216098272,741.8436581345127,1275.6342584095803C758.9846174791658,1395.7859952093334,841.4029603582752,1461.4759607412768,851.0956840025231,1608.8702510063467C860.7884076467709,1756.2645412714166,808.5159473337538,2068.145041834391,800,2160L 1920 2160 L 1920 -1080 Z" fill="url(&quot;#SvgjsLinearGradient1615&quot;)"></path><path d="M960,-1080C946.9139066834921,-991.4838590251449,878.2436092677563,-749.4473168051251,881.4834401009527,-548.9031541508693C884.7232709341492,-348.3589914966136,982.2559751530735,-111.73759289420616,979.438984999179,123.26497592553426C976.6219948452845,358.2675447452747,855.799120412851,645.9171602055407,864.5814991775861,861.1122587675732C873.3638779423212,1076.3073573296056,1016.2301741171874,1197.9542770923247,1032.1332575875897,1414.4355672977292C1048.036341057992,1630.9168575031338,972.0222095979316,2035.7392612162882,960,2160L 1920 2160 L 1920 -1080 Z" fill="url(&quot;#SvgjsLinearGradient1616&quot;)"></path><path d="M1120,-1080C1121.7898021440812,-1019.3800753883879,1120.3175055687452,-867.3381612375609,1130.738812864488,-716.2804523303274C1141.1601201602307,-565.2227434230939,1165.7067974627003,-308.8016663122569,1182.5278437744569,-173.65374655659866C1199.3488900862135,-38.50582680094047,1252.675392528342,-14.78353990084645,1231.6650907350283,94.6070662036218C1210.6547889417147,203.99767230809005,1063.1901588742192,335.70137600434646,1056.4660330145746,482.6898900702108C1049.74190715493,629.6784041360752,1185.427695090543,834.6276778257863,1191.3203355771614,976.5381505988078C1197.2129760637797,1118.4486233718292,1093.1700310509104,1198.915873079088,1091.8218759342844,1334.152726708339C1090.4737208176584,1469.3895803375901,1178.535050866453,1650.318060159037,1183.2314048774056,1787.959272374314C1187.927758888358,1925.600484589591,1130.5385674795675,2097.9932120623857,1120,2160L 1920 2160 L 1920 -1080 Z" fill="url(&quot;#SvgjsLinearGradient1617&quot;)"></path><path d="M1280,-1080C1300.7338617878888,-968.783390471613,1410.9193693664188,-612.8154140291583,1404.4031707273332,-412.7003428296775C1397.8869720882476,-212.5852716301966,1249.1417374074313,-95.40304971538848,1240.9028081654865,120.69042719688542C1232.6638789235417,336.7839041091593,1341.830965227316,657.501502233193,1354.9695952756647,883.860518643966C1368.1082253240133,1110.2195350547388,1332.2295210015218,1266.1546121021838,1319.7345884555778,1478.8445256615228C1307.2396559096337,1691.5344392208617,1286.6224314092628,2046.4740876102537,1280,2160L 1920 2160 L 1920 -1080 Z" fill="url(&quot;#SvgjsLinearGradient1618&quot;)"></path><path d="M1440,-1080C1452.394483947522,-956.7170704532684,1508.5457839989867,-566.9552739576282,1514.366903685133,-340.30242271961026C1520.188023371279,-113.64957148159235,1466.4641775509356,75.97410100739026,1474.9267181168773,279.91710742810756C1483.389258682819,483.8601138488249,1557.236232592721,689.0420237266401,1565.1421470807827,883.3556158046935C1573.0480615688443,1077.6692078827468,1543.2192295587106,1233.024595863877,1522.3622050452468,1445.798659896428C1501.505180531783,1658.572723928979,1453.7270341742078,2040.9664433160713,1440,2160L 1920 2160 L 1920 -1080 Z" fill="url(&quot;#SvgjsLinearGradient1619&quot;)"></path><path d="M1600,-1080C1583.4624441316375,-949.951154534417,1497.8061897805896,-570.0750324927309,1500.774664789825,-299.7069272065018C1503.7431397990604,-29.33882192027272,1581.6900579989522,249.02313472356417,1617.8108500554122,542.2086317173744C1653.9316421118722,835.3941287111845,1720.4678921378209,1189.7741600425886,1717.4994171285855,1459.4060547563595C1714.5309421193501,1729.0379494701303,1619.5832361880975,2043.2343424593932,1600,2160L 1920 2160 L 1920 -1080 Z" fill="url(&quot;#SvgjsLinearGradient1620&quot;)"></path><path d="M1760,-1080C1743.838939247094,-995.2472723799111,1671.1570638693213,-709.7650760461687,1663.0336354825633,-571.4836342794669C1654.9102070958054,-433.202192512765,1709.3292879270543,-400.7144777042214,1711.2594296794523,-250.31134939978915C1713.1895714318503,-99.90822109535691,1668.5001774317545,143.28637365232262,1674.614485996951,330.93513554712655C1680.7287945621476,518.5838974419305,1753.9129470023083,735.7600621872591,1747.9452810706316,875.5812219690345C1741.977615138955,1015.4023817508098,1627.796692362883,1039.5900123294828,1638.808490406891,1169.8620942377788C1649.820288450899,1300.1341761460749,1793.8174844024943,1492.190729125107,1814.016069334679,1657.2137134188106C1834.2146542668638,1822.2366977125141,1769.0026782224465,2076.202285569802,1760,2160L 1920 2160 L 1920 -1080 Z" fill="url(&quot;#SvgjsLinearGradient1621&quot;)"></path></g></g><defs><linearGradient x1="0.1" y1="0" x2="0" y2="1" id="SvgjsLinearGradient1610"><stop stop-color="#a0a0a3" offset="0"></stop><stop stop-color="#a0a0a3" offset="0"></stop></linearGradient><linearGradient x1="0.1" y1="0" x2="0" y2="1" id="SvgjsLinearGradient1611"><stop stop-color="#a8a8ab" offset="0"></stop><stop stop-color="#a8a9ab" offset="0.08333333333333333"></stop></linearGradient><linearGradient x1="0.1" y1="0" x2="0" y2="1" id="SvgjsLinearGradient1612"><stop stop-color="#b0b0b3" offset="0"></stop><stop stop-color="#b0b0b3" offset="0.16666666666666666"></stop></linearGradient><linearGradient x1="0.1" y1="0" x2="0" y2="1" id="SvgjsLinearGradient1613"><stop stop-color="#b8b8ba" offset="0"></stop><stop stop-color="#b8b8ba" offset="0.25"></stop></linearGradient><linearGradient x1="0.1" y1="0" x2="0" y2="1" id="SvgjsLinearGradient1614"><stop stop-color="#c0c0c2" offset="0"></stop><stop stop-color="#c0c0c2" offset="0.3333333333333333"></stop></linearGradient><linearGradient x1="0.1" y1="0" x2="0" y2="1" id="SvgjsLinearGradient1615"><stop stop-color="#c8c8ca" offset="0"></stop><stop stop-color="#c8c8ca" offset="0.4166666666666667"></stop></linearGradient><linearGradient x1="0.1" y1="0" x2="0" y2="1" id="SvgjsLinearGradient1616"><stop stop-color="#d0d0d2" offset="0"></stop><stop stop-color="#d0d0d2" offset="0.5"></stop></linearGradient><linearGradient x1="0.1" y1="0" x2="0" y2="1" id="SvgjsLinearGradient1617"><stop stop-color="#d8d8d9" offset="0"></stop><stop stop-color="#d8d8d9" offset="0.5833333333333334"></stop></linearGradient><linearGradient x1="0.1" y1="0" x2="0" y2="1" id="SvgjsLinearGradient1618"><stop stop-color="#e0e0e1" offset="0"></stop><stop stop-color="#e0e0e1" offset="0.6666666666666666"></stop></linearGradient><linearGradient x1="0.1" y1="0" x2="0" y2="1" id="SvgjsLinearGradient1619"><stop stop-color="#e8e8e9" offset="0"></stop><stop stop-color="#e8e8e9" offset="0.75"></stop></linearGradient><linearGradient x1="0.1" y1="0" x2="0" y2="1" id="SvgjsLinearGradient1620"><stop stop-color="#f0f0f1" offset="0"></stop><stop stop-color="#f0f0f1" offset="0.8333333333333334"></stop></linearGradient><linearGradient x1="0.1" y1="0" x2="0" y2="1" id="SvgjsLinearGradient1621"><stop stop-color="#f8f8f8" offset="0"></stop><stop stop-color="#f8f8f8" offset="0.9166666666666666"></stop></linearGradient><clipPath id="SvgjsClipPath1622"><rect width="1920" height="1080"></rect></clipPath></defs></svg>